<svg width="90" height="45" viewBox="0 0 87 20" fill="none" xmlns="http://www.w3.org/2000/svg" aria-hidden="true"><path d="M30.9518 4.82275V8.6824H27.5739V14.9034H23.0493V8.69292H19.668V4.83327L30.9518 4.82275Z" fill="white"></path><path d="M44.3144 4.82275V10.4929C44.3144 13.4648 42.2357 15.1771 38.456 15.1771C34.6762 15.1771 32.5664 13.4648 32.5664 10.4929V4.82275H37.0702V10.128C37.0702 10.9982 37.5171 11.4052 38.4317 11.4052C39.3464 11.4052 39.7794 10.9982 39.7794 10.128V4.82275H44.3144Z" fill="white"></path><path d="M45.998 14.914V4.82275H51.6104C55.6916 4.82275 57.9539 6.73503 57.9539 9.84029V9.89645C57.9539 12.9877 55.7228 14.914 51.6104 14.914H45.998ZM50.5226 11.114H51.6416C52.8126 11.114 53.315 10.6192 53.315 9.86486V9.83678C53.315 9.0824 52.8299 8.6052 51.6416 8.6052H50.5226V11.114Z" fill="white"></path><path d="M70.9633 4.82275V10.4929C70.9633 13.4648 68.8847 15.1771 65.1049 15.1771C61.3252 15.1771 59.2361 13.4648 59.2361 10.4929V4.82275H63.7399V10.128C63.7399 10.9982 64.1834 11.4052 65.098 11.4052C66.0126 11.4052 66.4457 10.9982 66.4457 10.128V4.82275H70.9633Z" fill="white"></path><path d="M87.0003 4.82275V14.914H82.5623V10.7035L79.7907 13.907L77.0191 10.7175V14.928H72.6366V4.82275H76.9602L79.8115 8.17011L82.6177 4.82275H87.0003Z" fill="white"></path><path fill-rule="evenodd" clip-rule="evenodd" d="M7.21094 0V4.09703V9.41459V10.4091C7.32952 10.7489 7.8312 12.1912 7.95964 12.5544V12.5544C8.19954 13.2471 9.56513 17.1569 9.67428 17.4697V17.4697C9.77215 17.7504 10.0447 18.5305 10.1314 18.7802V18.7802C10.182 18.9246 10.3142 19.3026 10.3845 19.5043V19.5043C10.4394 19.6619 10.4345 19.6489 10.4685 19.7465V19.7465C10.5173 19.7663 10.9857 19.9588 11.053 19.9865V19.9865C11.0548 19.9873 11.0588 19.9889 11.0635 19.9909V19.9909C11.0713 19.994 11.0682 19.9927 11.072 19.9942V19.9942C11.0801 19.9975 11.0827 19.9986 11.0856 19.9998V19.9998C11.0857 19.8505 11.0857 19.6294 11.0858 19.393V19.393V0H7.21094Z" fill="url(#header-tudum-logo-linear-gradient-0)"></path><path fill-rule="evenodd" clip-rule="evenodd" d="M0 1.38974V2.7814V8.00172V19.9998C1.53922 19.8124 2.30905 19.7395 3.87483 19.6673V15.9027V10.5852V9.59069C3.75625 9.25089 0.771509 0.697193 0.701257 0.495553C0.646288 0.337938 0.651242 0.350921 0.617197 0.253413C0.568447 0.233484 0.0999763 0.0410334 0.0327808 0.0132504C0.0144931 0.00582375 0.0174972 0.00715947 0.013808 0.00561003C0.00569185 0.00235087 0.00305673 0.00117543 0.000158107 0C0.000105405 0.14928 5.27023e-05 0.370369 0 0.606792V1.38974Z" fill="url(#header-tudum-logo-linear-gradient-1)"></path><path fill-rule="evenodd" clip-rule="evenodd" d="M3.95841 0H0L7.00941 19.6674C8.97919 19.7167 11.0863 20 11.0863 20L3.95841 0Z" fill="#E50914"></path><defs><linearGradient id="header-tudum-logo-linear-gradient-0" x1="8.64677" y1="15.6891" x2="10.3223" y2="15.2315" gradientUnits="userSpaceOnUse"><stop offset="0.354167" stop-color="#7C020D"></stop><stop offset="1" stop-color="#B20710"></stop></linearGradient><linearGradient id="header-tudum-logo-linear-gradient-1" x1="2.88244" y1="5.22969" x2="0.942535" y2="5.76789" gradientUnits="userSpaceOnUse"><stop offset="0.489583" stop-color="#7C020D"></stop><stop offset="1" stop-color="#B20710"></stop></linearGradient></defs></svg>